<?xml version="1.0" encoding="UTF-8"?>
<svg id="Layer_2" data-name="Layer 2" xmlns="http://www.w3.org/2000/svg" viewBox="0 0 1791.02 482.88">
  <defs>
    <style>
      .cls-1 {
        fill: #231f20;
        stroke-width: 0px;
      }
    </style>
  </defs>
  <g id="Layer_1-2" data-name="Layer 1">
    <g>
      <path class="cls-1" d="m0,0l45,72,45.92,73.5,44.37,71,.62,1h246.75l-80.92,129.5-36.56-58.5h-84.9l79.01,126.44,42.45,67.94,42.45-67.94,123.38-197.44,44.99-72,45.93-73.5L603.48,0H0Zm427.65,145.5h-251.82l-45.93-73.5h343.68l-45.93,73.5Z"/>
      <rect class="cls-1" x="648.02" y="61.44" width="72" height="360"/>
      <rect class="cls-1" x="1431.02" y="61.44" width="72" height="360"/>
      <path class="cls-1" d="m795.62,421.44h-3.6v-3.6c0,1.99,1.61,3.6,3.6,3.6Z"/>
      <path class="cls-1" d="m795.62,205.44c-1.99,0-3.6,1.61-3.6,3.6v-3.6h3.6Z"/>
      <path class="cls-1" d="m795.62,205.44c-1.99,0-3.6,1.61-3.6,3.6v-3.6h3.6Z"/>
      <path class="cls-1" d="m1015.11,242.99c17.98,20.01,28.91,46.47,28.91,75.49v99.36c0,1.99-1.61,3.6-3.6,3.6h-68.4v-108c0-19.88-16.12-36-36-36h-72v144h-68.4c-1.99,0-3.6-1.61-3.6-3.6v-208.8c0-1.99,1.61-3.6,3.6-3.6h140.4c9.94,0,18.94-4.03,25.46-10.54,6.51-6.52,10.54-15.52,10.54-25.46,0-19.88-16.12-36-36-36h-144V61.44h144c59.65,0,108,48.35,108,108,0,28.41-10.98,54.26-28.91,73.55Z"/>
      <path class="cls-1" d="m1179.02,169.44v144c0,19.88,16.12,36,36,36h36c19.88,0,36-16.12,36-36v-36h-54v-72h126v108c0,59.65-48.35,108-108,108h-36c-59.65,0-108-48.35-108-108v-144c0-59.65,48.35-108,108-108h144v72h-144c-19.88,0-36,16.12-36,36Z"/>
      <polygon class="cls-1" points="1791.02 349.44 1791.02 421.44 1575.02 421.44 1575.02 61.44 1647.02 61.44 1647.02 349.44 1791.02 349.44"/>
    </g>
  </g>
</svg>